<svg width="32" height="32" viewBox="0 0 512 512" fill="none" xmlns="http://www.w3.org/2000/svg">
    <rect width="512" height="512" rx="80" fill="url(#paint0_linear_1_2)"/>
    <path d="M233.402 391.248L242.612 362.185L261.362 303.295L246.055 205.653C246.055 205.653 244.63 228.948 231.055 268.233C220.42 298.983 201.22 338.358 176.972 391.233L233.402 391.248Z"
          fill="white"/>
    <path d="M243.91 120.25H295C295 120.25 293.455 143.253 292 174.333C290.868 199.705 289.323 232.51 292 270.01C295.212 310.935 301.988 351.501 312.25 391.248H264.707C264.707 391.248 258.467 365.455 252.407 313.248C249.407 287.808 246.047 256.075 244.322 217.998C242.95 189.13 243.91 156.558 243.91 120.25Z"
          fill="white"/>
    <defs>
        <linearGradient id="paint0_linear_1_2" x1="456.021" y1="255.813" x2="121.478" y2="-58.312"
                        gradientUnits="userSpaceOnUse">
            <stop stop-color="#1B60F1"/>
            <stop offset="0.728567" stop-color="#228EF0"/>
            <stop offset="0.995191" stop-color="#259FF0"/>
        </linearGradient>
    </defs>
</svg>
