<svg width="233" height="225" viewBox="0 0 466 451" fill="none" xmlns="http://www.w3.org/2000/svg">
<path d="M407.5 241C407.5 336.819 329.376 414.5 233 414.5C136.624 414.5 58.5 336.819 58.5 241C58.5 145.181 136.624 67.5 233 67.5C329.376 67.5 407.5 145.181 407.5 241Z" stroke="#1665F4"/>
<path d="M233 327C279.944 327 318 288.496 318 241C318 193.504 279.944 155 233 155C186.056 155 148 193.504 148 241C148 288.496 186.056 327 233 327Z" fill="#1665F4"/>
<path d="M310 77.5C310 119.744 275.532 154 233 154C190.468 154 156 119.744 156 77.5C156 35.2563 190.468 1 233 1C275.532 1 310 35.2563 310 77.5Z" fill="white" stroke="#1665F4" stroke-width="2"/>
<path d="M154 190C154 231.968 119.756 266 77.5 266C35.2441 266 1 231.968 1 190C1 148.032 35.2441 114 77.5 114C119.756 114 154 148.032 154 190Z" fill="white" stroke="#1665F4" stroke-width="2"/>
<path d="M213 373C213 415.532 178.744 450 136.5 450C94.2563 450 60 415.532 60 373C60 330.468 94.2563 296 136.5 296C178.744 296 213 330.468 213 373Z" fill="white" stroke="#1665F4" stroke-width="2"/>
<path d="M407 373C407 415.526 372.526 450 330 450C287.474 450 253 415.526 253 373C253 330.474 287.474 296 330 296C372.526 296 407 330.474 407 373Z" fill="white" stroke="#1665F4" stroke-width="2"/>
<path d="M465 190C465 231.968 430.756 266 388.5 266C346.244 266 312 231.968 312 190C312 148.032 346.244 114 388.5 114C430.756 114 465 148.032 465 190Z" fill="white" stroke="#1665F4" stroke-width="2"/>
<path d="M211.428 73.6602H209.24V76.0221H200.779V77.8039H219.923V76.0221H211.428V73.6602ZM201.724 73.0967L202.47 74.779C206.166 74.4475 209.232 73.0138 210.351 70.8425C211.47 73.0138 214.536 74.4475 218.24 74.779L218.97 73.0967C215.199 72.7652 212.224 71.2983 211.859 69.4006H218.199V67.6271H202.528V69.4006H208.826C208.453 71.2901 205.461 72.7652 201.724 73.0967ZM203.058 80.9862H215.307V82.6851H203.099V87.7901H218.099V86.0663H205.279V84.3011H217.494V79.3122H203.058V80.9862ZM227.322 67.942C224.115 67.9254 221.811 69.9641 221.828 72.8315C221.811 75.7238 224.115 77.7459 227.322 77.7459C230.123 77.7459 232.278 76.1215 232.709 73.7099H236.803V78.2597H239.024V66.989H236.803V71.895H232.701C232.237 69.5331 230.09 67.9254 227.322 67.942ZM223.941 72.8315C223.941 71.0166 225.342 69.7983 227.322 69.8149C229.27 69.7983 230.662 71.0166 230.662 72.8315C230.662 74.6215 229.27 75.8729 227.322 75.8729C225.342 75.8729 223.941 74.6215 223.941 72.8315ZM225.333 87.7238H239.024V79.279H236.803V81.7238H227.538V79.279H225.333V87.7238ZM227.538 85.9088V83.4724H236.803V85.9088H227.538ZM248.678 71.0249V68.2983H246.523V71.0249C246.523 73.3619 245.006 76.0221 242.172 77.2652L243.382 78.989C245.421 78.1188 246.855 76.4199 247.625 74.4724C248.379 76.1961 249.747 77.6298 251.694 78.3757L252.879 76.6602C250.145 75.6409 248.678 73.3204 248.678 71.0249ZM246.018 84.1519C246.001 86.5387 248.744 87.9558 253.145 87.9558C257.512 87.9558 260.272 86.5387 260.272 84.1519C260.272 81.7486 257.512 80.3398 253.145 80.3398C248.744 80.3398 246.001 81.7486 246.018 84.1519ZM248.23 84.1519C248.214 82.8094 250.078 82.0304 253.145 82.0304C256.178 82.0304 258.042 82.8094 258.051 84.1519C258.042 85.4862 256.178 86.2569 253.145 86.2403C250.078 86.2569 248.214 85.4862 248.23 84.1519ZM253.526 79.2624H255.598V74.3066H258.051V79.9337H260.156V67.0055H258.051V72.4751H255.598V67.395H253.526V79.2624Z" fill="#444444"/>
<path d="M62.9116 178.989H60.7818V187.343H58.2707V179.395H56.1657V198.953H58.2707V189.207H60.7818V199.989H62.9116V178.989ZM44.489 194.055L45.8729 195.754C48.011 194.486 49.4033 192.282 50.1243 189.522C50.8702 191.95 52.2459 193.906 54.3177 195.025L55.6271 193.318C52.5691 191.743 51.1519 188.32 51.1519 184.541V183.199H54.8149V181.384H45.0608V183.199H48.9972V184.541C48.9972 188.718 47.5635 192.34 44.489 194.055ZM78.0433 181.119H72.9135V178.89H70.7008V181.119H65.5461V182.892H78.0433V181.119ZM66.6897 187.674C66.6814 189.97 68.7615 191.478 71.803 191.478C74.8278 191.478 76.8831 189.97 76.8914 187.674C76.8831 185.37 74.8278 183.87 71.803 183.854C68.7615 183.87 66.6814 185.37 66.6897 187.674ZM68.14 195H79.7919V199.989H82.0212V193.193H68.14V195ZM68.8361 187.674C68.8195 186.373 70.0129 185.569 71.803 185.552C73.5764 185.569 74.7698 186.373 74.7864 187.674C74.7698 188.967 73.5764 189.746 71.803 189.746C70.0129 189.746 68.8195 188.967 68.8361 187.674ZM79.7919 192.124H82.0212V186.53H85.0626V184.691H82.0212V178.989H79.7919V192.124ZM92.6777 183.025V180.298H90.523V183.025C90.523 185.362 89.0065 188.022 86.1722 189.265L87.3822 190.989C89.4208 190.119 90.8545 188.42 91.6253 186.472C92.3794 188.196 93.7468 189.63 95.6943 190.376L96.8794 188.66C94.1446 187.641 92.6777 185.32 92.6777 183.025ZM90.0175 196.152C90.0009 198.539 92.744 199.956 97.1446 199.956C101.512 199.956 104.272 198.539 104.272 196.152C104.272 193.749 101.512 192.34 97.1446 192.34C92.744 192.34 90.0009 193.749 90.0175 196.152ZM92.2302 196.152C92.2137 194.809 94.0783 194.03 97.1446 194.03C100.178 194.03 102.042 194.809 102.051 196.152C102.042 197.486 100.178 198.257 97.1446 198.24C94.0783 198.257 92.2137 197.486 92.2302 196.152ZM97.5258 191.262H99.5976V186.307H102.051V191.934H104.156V179.006H102.051V184.475H99.5976V179.395H97.5258V191.262Z" fill="#444444"/>
<path d="M123.964 374.856H104.746V376.68H109.536V383.989H111.823V376.68H116.845V383.989H119.099V376.68H123.964V374.856ZM106.843 368.425C106.843 371.227 109.867 373 114.309 372.983C118.751 373 121.801 371.227 121.801 368.425C121.801 365.591 118.751 363.793 114.309 363.776C109.867 363.793 106.843 365.591 106.843 368.425ZM109.13 368.425C109.113 366.66 111.193 365.583 114.309 365.583C117.434 365.583 119.506 366.66 119.506 368.425C119.506 370.149 117.434 371.21 114.309 371.218C111.193 371.21 109.113 370.149 109.13 368.425ZM138.043 365.119H132.913V362.89H130.701V365.119H125.546V366.892H138.043V365.119ZM126.69 371.674C126.681 373.97 128.762 375.478 131.803 375.478C134.828 375.478 136.883 373.97 136.891 371.674C136.883 369.37 134.828 367.87 131.803 367.854C128.762 367.87 126.681 369.37 126.69 371.674ZM128.14 379H139.792V383.989H142.021V377.193H128.14V379ZM128.836 371.674C128.82 370.373 130.013 369.569 131.803 369.552C133.576 369.569 134.77 370.373 134.786 371.674C134.77 372.967 133.576 373.746 131.803 373.746C130.013 373.746 128.82 372.967 128.836 371.674ZM139.792 376.124H142.021V370.53H145.063V368.691H142.021V362.989H139.792V376.124ZM152.678 367.025V364.298H150.523V367.025C150.523 369.362 149.006 372.022 146.172 373.265L147.382 374.989C149.421 374.119 150.855 372.42 151.625 370.472C152.379 372.196 153.747 373.63 155.694 374.376L156.879 372.66C154.145 371.641 152.678 369.32 152.678 367.025ZM150.018 380.152C150.001 382.539 152.744 383.956 157.145 383.956C161.512 383.956 164.272 382.539 164.272 380.152C164.272 377.749 161.512 376.34 157.145 376.34C152.744 376.34 150.001 377.749 150.018 380.152ZM152.23 380.152C152.214 378.809 154.078 378.03 157.145 378.03C160.178 378.03 162.042 378.809 162.051 380.152C162.042 381.486 160.178 382.257 157.145 382.24C154.078 382.257 152.214 381.486 152.23 380.152ZM157.526 375.262H159.598V370.307H162.051V375.934H164.156V363.006H162.051V368.475H159.598V363.395H157.526V375.262Z" fill="#444444"/>
<path d="M316.834 365.011H301.743V366.818H314.613V367.249C314.613 369.834 314.613 372.644 313.884 376.448L316.072 376.68C316.818 372.66 316.818 369.901 316.834 367.249V365.011ZM299.779 381.155H318.923V379.315H311.729V372.503H309.541V379.315H306.517V372.503H304.296V379.315H299.779V381.155ZM328.295 366.76V366.18H332.919V364.381H321.325V366.18H326.049V366.76C326.032 369.619 324.018 372.362 320.745 373.481L321.897 375.204C324.4 374.334 326.264 372.519 327.209 370.24C328.162 372.345 329.994 374.003 332.413 374.798L333.549 373.075C330.3 372.047 328.295 369.47 328.295 366.76ZM323.704 378.528H335.712V383.989H337.941V376.721H323.704V378.528ZM335.712 375.669H337.941V362.989H335.712V375.669ZM358.733 363.006H356.495V375.345H352.269V376.92H356.495V378.934H358.733V363.006ZM341.156 372.594L341.437 374.384C343.145 374.392 345.1 374.376 347.139 374.301V378.279H349.36V374.177C351.216 374.061 353.098 373.87 354.904 373.572L354.755 371.964C350.28 372.528 345.042 372.569 341.156 372.594ZM342.797 367.506C342.797 369.751 344.918 371.169 348.034 371.169C351.1 371.169 353.23 369.751 353.247 367.506C353.23 365.293 351.1 363.809 348.034 363.809C344.918 363.809 342.797 365.293 342.797 367.506ZM344.064 383.558H359.23V381.735H346.285V377.376H344.064V383.558ZM344.91 367.506C344.902 366.262 346.169 365.459 348.034 365.467C349.824 365.459 351.109 366.262 351.125 367.506C351.109 368.757 349.824 369.536 348.034 369.536C346.169 369.536 344.902 368.757 344.91 367.506Z" fill="#444444"/>
<path d="M383.834 181.011H368.743V182.818H381.613V183.249C381.613 185.834 381.613 188.644 380.884 192.448L383.072 192.68C383.818 188.66 383.818 185.901 383.834 183.249V181.011ZM366.779 197.155H385.923V195.315H378.729V188.503H376.541V195.315H373.517V188.503H371.296V195.315H366.779V197.155ZM398.262 180.837V179.693H395.941V180.837C395.941 183.663 392.543 186.249 388.425 186.804L389.32 188.619C392.734 188.072 395.742 186.298 397.11 183.812C398.477 186.282 401.485 188.072 404.916 188.619L405.803 186.804C401.668 186.249 398.262 183.63 398.262 180.837ZM387.521 192.522H395.949V199.989H398.137V192.522H406.665V190.682H387.521V192.522Z" fill="#444444"/>
<path d="M205.873 215.648V211.711H202.783V215.648C202.77 220.42 200.363 225.137 196.248 226.914L198.107 229.457C201.102 228.049 203.234 225.205 204.369 221.732C205.518 224.959 207.596 227.57 210.439 228.883L212.244 226.449C208.238 224.727 205.846 220.188 205.873 215.648ZM214.021 234.461H217.084V209.715H214.021V234.461ZM241.994 209.715H239.096V219.395H236.307V210.18H233.518V233.176H236.307V221.828H239.096V234.434H241.994V209.715ZM221.486 228.664H223.154C226.6 228.637 229.184 228.555 232.178 227.953L231.959 225.465C229.443 225.93 227.229 226.066 224.549 226.094V215.102H230.729V212.641H221.486V228.664ZM252.932 211.438C249.049 211.424 246.137 213.898 246.15 217.398C246.137 220.912 249.049 223.373 252.932 223.387C256.855 223.373 259.713 220.912 259.74 217.398C259.713 213.898 256.855 211.424 252.932 211.438ZM245.029 226.805L245.412 229.293C249.773 229.293 255.707 229.252 261.244 228.199L260.998 225.984C255.652 226.75 249.486 226.805 245.029 226.805ZM249.158 217.398C249.145 215.348 250.771 214.062 252.932 214.062C255.133 214.062 256.746 215.348 256.76 217.398C256.746 219.463 255.119 220.734 252.932 220.734C250.771 220.734 249.145 219.463 249.158 217.398ZM262.475 234.461H265.51V209.715H262.475V234.461ZM205.121 242.742H202.086V246.324H196.18C195.004 245.012 193.254 244.232 191.285 244.219C187.553 244.232 184.75 246.871 184.75 250.562C184.75 254.213 187.553 256.865 191.285 256.879C193.268 256.865 195.018 256.072 196.193 254.746H202.086V260.871H205.121V242.742ZM187.648 250.562C187.648 248.348 189.166 246.926 191.285 246.926C193.309 246.926 194.854 248.348 194.867 250.562C194.854 252.764 193.309 254.172 191.285 254.172C189.166 254.172 187.648 252.764 187.648 250.562ZM188.906 266.941H205.75V264.48H191.941V259.012H188.906V266.941ZM197.52 248.785H202.086V252.285H197.533C197.684 251.738 197.766 251.164 197.766 250.562C197.766 249.934 197.67 249.346 197.52 248.785ZM229.32 242.715H226.285V245.996H221.295C221.404 245.299 221.473 244.561 221.473 243.781H210.316V246.242H218.082C217.658 249.523 214.76 252.08 208.949 253.297L210.016 255.785C215.484 254.555 219.107 252.094 220.639 248.32H226.285V250.754H220.324V253.078H226.285V255.238H229.32V242.715ZM213.051 258.602H226.285V260.434H213.078V267.188H229.977V264.754H216.113V262.703H229.32V256.195H213.051V258.602ZM253 244.984H235.172V247.418H249.938C249.924 250.385 249.924 253.898 248.953 258.711L252.016 259.039C252.973 253.871 252.973 250.439 253 247.363V244.984ZM232.82 264.234H255.352V261.746H244.141V253.16H241.133V261.746H232.82V264.234ZM277.609 242.715H274.602V267.461H277.609V242.715ZM258.359 247.336H266.918V251.738H258.387V261.609H260.547C264.99 261.623 268.682 261.459 272.879 260.734L272.605 258.246C268.75 258.889 265.4 259.094 261.504 259.121V254.145H270.008V244.875H258.359V247.336Z" fill="white"/>
<ellipse cx="155.5" cy="85.5" rx="4.5" ry="5.5" fill="#1665F4"/>
<ellipse cx="107.5" cy="120" rx="5.5" ry="5" fill="#1665F4"/>
<circle cx="60.5" cy="265.5" r="5.5" fill="#1665F4"/>
<ellipse cx="79" cy="322.5" rx="6" ry="5.5" fill="#1665F4"/>
<ellipse cx="203.5" cy="412" rx="4.5" ry="5" fill="#1665F4"/>
<ellipse cx="261.5" cy="412" rx="4.5" ry="5" fill="#1665F4"/>
<ellipse cx="386.5" cy="321" rx="5.5" ry="6" fill="#1665F4"/>
<circle cx="405.5" cy="265.5" r="5.5" fill="#1665F4"/>
<circle cx="357" cy="120" r="5" fill="#1665F4"/>
<ellipse cx="309" cy="85.5" rx="5" ry="5.5" fill="#1665F4"/>
</svg>
