<svg width="566" height="238" viewBox="0 0 1133 477" fill="none" xmlns="http://www.w3.org/2000/svg">
<path d="M571.29 280.693C648.802 280.693 711.637 217.858 711.637 140.347C711.637 62.8353 648.802 0 571.29 0C493.779 0 430.944 62.8353 430.944 140.347C430.944 217.858 493.779 280.693 571.29 280.693Z" fill="#DCE8FF" fill-opacity="0.5"/>
<path d="M471.347 454C548.858 454 611.693 391.164 611.693 313.653C611.693 236.142 548.858 173.307 471.347 173.307C393.835 173.307 331 236.142 331 313.653C331 391.164 393.835 454 471.347 454Z" fill="#DCE8FF" fill-opacity="0.5"/>
<path d="M671.234 454C748.746 454 811.581 391.164 811.581 313.653C811.581 236.142 748.746 173.307 671.234 173.307C593.723 173.307 530.888 236.142 530.888 313.653C530.888 391.164 593.723 454 671.234 454Z" fill="#DCE8FF" fill-opacity="0.5"/>
<path d="M710.574 140.347C710.574 217.271 648.214 279.63 571.29 279.63C494.366 279.63 432.007 217.271 432.007 140.347C432.007 63.4225 494.366 1.06323 571.29 1.06323C648.214 1.06323 710.574 63.4225 710.574 140.347Z" stroke="#99BDFF" stroke-width="2.12646"/>
<path d="M331.162 301.305H293.513L266 373.707" stroke="#1463F1" stroke-width="2.5"/>
<path d="M610.63 313.653C610.63 390.577 548.271 452.937 471.347 452.937C394.423 452.937 332.063 390.577 332.063 313.653C332.063 236.729 394.423 174.37 471.347 174.37C548.271 174.37 610.63 236.729 610.63 313.653Z" stroke="#99BDFF" stroke-width="2.12646"/>
<path d="M810.518 313.653C810.518 390.577 748.158 452.937 671.234 452.937C594.31 452.937 531.951 390.577 531.951 313.653C531.951 236.729 594.31 174.37 671.234 174.37C748.158 174.37 810.518 236.729 810.518 313.653Z" stroke="#99BDFF" stroke-width="2.12646"/>
<path d="M530.301 113.753H527.026V140.01H530.301V113.753ZM508.568 132.806L510.235 135.366C519.435 131.02 522.471 124.381 522.501 116.551H509.878V119.112H519.196C518.601 125.095 515.416 129.531 508.568 132.806ZM550.552 115.837H544.42V113.574H541.145V115.837H535.012V118.218H550.552V115.837ZM534.238 128.34L534.655 130.841C539.329 130.841 545.521 130.752 551.148 129.829L550.91 127.626C548.826 127.894 546.623 128.043 544.42 128.162V126.733C547.367 126.376 549.272 124.976 549.302 122.922C549.272 120.511 546.652 118.963 542.812 118.992C538.882 118.963 536.322 120.511 536.322 122.922C536.322 124.976 538.168 126.346 541.145 126.733V128.281C538.674 128.34 536.322 128.34 534.238 128.34ZM537.93 135.069H552.755V140.01H556.03V132.568H537.93V135.069ZM539.418 122.922C539.418 121.791 540.758 121.166 542.812 121.136C544.807 121.166 546.176 121.791 546.206 122.922C546.176 124.024 544.807 124.649 542.812 124.649C540.758 124.649 539.418 124.024 539.418 122.922ZM552.755 131.496H556.03V113.812H552.755V131.496ZM571.757 131.853C565.892 131.883 562.617 133.312 562.587 135.962C562.617 138.611 565.892 140.01 571.757 140.01C577.562 140.01 580.866 138.611 580.866 135.962C580.866 133.312 577.562 131.883 571.757 131.853ZM559.848 130.663H583.784V128.102H573.424V126.524C578.008 126.316 580.509 125.036 580.509 122.863C580.509 120.332 577.413 119.052 571.816 119.052C566.219 119.052 563.064 120.332 563.064 122.863C563.064 125.036 565.594 126.286 570.149 126.524V128.102H559.848V130.663ZM561.039 118.218H582.474V115.777H573.424V113.515H570.149V115.777H561.039V118.218ZM565.922 135.962C565.922 134.83 567.857 134.235 571.757 134.235C575.657 134.235 577.592 134.83 577.592 135.962C577.592 137.123 575.657 137.659 571.757 137.629C567.857 137.659 565.922 137.123 565.922 135.962ZM566.517 122.863C566.517 121.761 568.303 121.255 571.816 121.255C575.299 121.255 577.056 121.761 577.056 122.863C577.056 123.845 575.299 124.351 571.816 124.351C568.303 124.351 566.517 123.845 566.517 122.863ZM609.573 134.235H599.094V129.114H606.834V115.48H603.619V119.826H591.413V115.48H588.198V129.114H595.938V134.235H585.578V136.855H609.573V134.235ZM591.413 126.495V122.386H603.619V126.495H591.413ZM625.418 115.301H612.736V128.043H614.999C620.655 128.072 623.93 127.983 627.681 127.328L627.383 124.828C623.93 125.393 620.923 125.482 616.011 125.482V122.863H624.704V120.362H616.011V117.921H625.418V115.301ZM615.713 139.713H633.159V130.543H615.713V139.713ZM618.928 137.093V133.044H630.003V137.093H618.928ZM629.943 129.412H633.159V113.812H629.943V129.412Z" fill="#1C1C1C"/>
<path d="M420.38 310.45H417.224V320.632H414.425V311.165H411.389V335.517H414.425V323.251H417.224V336.708H420.38V310.45ZM397.575 328.967L399.481 331.23C406.923 326.973 409.156 320.87 409.186 313.784H398.826V316.345H406C405.554 321.584 403.172 325.752 397.575 328.967ZM427.592 311.641H424.436V323.073H436.94V311.641H433.724V314.975H427.592V311.641ZM427.056 327.479H441.048V329.503H427.115V336.529H445.097V333.909H430.271V331.825H444.263V324.978H427.056V327.479ZM427.592 320.513V317.416H433.724V320.513H427.592ZM440.988 323.906H444.263V318.369H447.955V315.749H444.263V310.45H440.988V323.906ZM463.383 311.998H450.701V324.74H452.964C458.62 324.77 461.895 324.68 465.646 324.025L465.348 321.525C461.895 322.09 458.888 322.18 453.976 322.18V319.56H462.669V317.059H453.976V314.618H463.383V311.998ZM453.678 336.41H471.124V327.241H453.678V336.41ZM456.894 333.79V329.741H467.968V333.79H456.894ZM467.909 326.109H471.124V310.51H467.909V326.109Z" fill="#1C1C1C"/>
<path d="M675.904 310.45H672.629V336.767H675.904V310.45ZM655.66 330.456H657.863C663.46 330.426 666.854 330.277 670.605 329.563L670.307 326.883C666.794 327.509 663.787 327.657 658.935 327.657V315.511H668.342V312.832H655.66V330.456ZM689.189 317.893V315.69H694.667V313.07H680.198V315.69H685.974V317.893C685.944 322.299 683.384 327.211 679.186 329.206L681.092 331.766C684.128 330.307 686.42 327.211 687.611 323.579C688.802 326.883 690.975 329.712 693.952 331.111L695.739 328.551C691.601 326.616 689.159 321.971 689.189 317.893ZM697.108 336.708H700.323V323.371H704.372V320.691H700.323V310.45H697.108V336.708ZM727.363 310.51H724.147V329.444H727.363V310.51ZM705.987 318.786C705.958 322.656 709.054 325.365 713.073 325.335C717.032 325.365 720.128 322.656 720.099 318.786C720.128 314.945 717.032 312.207 713.073 312.236C709.054 312.207 705.958 314.945 705.987 318.786ZM709.143 318.786C709.113 316.494 710.81 315.035 713.073 315.035C715.246 315.035 716.943 316.494 716.943 318.786C716.943 321.108 715.246 322.537 713.073 322.537C710.81 322.537 709.113 321.108 709.143 318.786ZM709.977 336.231H728.077V333.612H713.251V327.538H709.977V336.231ZM745.352 311.998H732.669V324.74H734.932C740.588 324.77 743.863 324.68 747.614 324.025L747.316 321.525C743.863 322.09 740.856 322.18 735.944 322.18V319.56H744.637V317.059H735.944V314.618H745.352V311.998ZM735.646 336.41H753.092V327.241H735.646V336.41ZM738.862 333.79V329.741H749.936V333.79H738.862ZM749.877 326.109H753.092V310.51H749.877V326.109Z" fill="#1C1C1C"/>
<rect x="834.069" y="353" width="148.665" height="33.7875" rx="16.8938" fill="#1463F1"/>
<rect x="29.9263" y="369" width="135.15" height="33.7875" rx="16.8938" fill="#1463F1"/>
<rect x="988.526" y="353" width="143.838" height="33.7875" rx="16.8938" fill="#1463F1"/>
<rect x="169.903" y="369" width="132.254" height="33.7875" rx="16.8938" fill="#1463F1"/>
<path d="M857.47 363.158V371.885C857.47 373.603 856.273 374.839 854.381 374.858C852.508 374.839 851.311 373.603 851.291 371.885V363.158H848.859V372.078C848.859 375.032 851.04 377.04 854.381 377.02C857.721 377.04 859.922 375.032 859.941 372.078V363.158H857.47ZM864.923 363.158H862.491V376.827H864.923V363.158ZM872.913 362.54H870.828L866.426 378.874H868.511L872.913 362.54ZM882.999 363.158V371.885C882.999 373.603 881.802 374.839 879.91 374.858C878.037 374.839 876.84 373.603 876.821 371.885V363.158H874.388V372.078C874.388 375.032 876.57 377.04 879.91 377.02C883.25 377.04 885.451 375.032 885.47 372.078V363.158H882.999ZM890.066 363.158H887.248L891.495 369.992L887.17 376.827H890.028L893.078 371.846H893.156L896.206 376.827H899.064L894.777 369.992L899.025 363.158H896.206L893.156 368.178H893.078L890.066 363.158ZM918.843 361.459H916.719V378.526H918.843V361.459ZM905.714 374.433H907.142C910.772 374.414 912.973 374.317 915.406 373.854L915.213 372.116C912.935 372.522 910.985 372.618 907.837 372.618V364.741H913.939V363.003H905.714V374.433ZM927.458 366.285V364.857H931.011V363.158H921.628V364.857H925.373V366.285C925.354 369.143 923.694 372.329 920.971 373.622L922.207 375.283C924.176 374.337 925.663 372.329 926.435 369.973C927.207 372.116 928.617 373.95 930.548 374.858L931.706 373.197C929.022 371.942 927.439 368.931 927.458 366.285ZM932.594 378.488H934.679V369.838H937.305V368.1H934.679V361.459H932.594V378.488ZM952.215 361.497H950.13V373.777H952.215V361.497ZM938.353 366.865C938.333 369.375 940.341 371.132 942.948 371.112C945.516 371.132 947.524 369.375 947.504 366.865C947.524 364.374 945.516 362.598 942.948 362.617C940.341 362.598 938.333 364.374 938.353 366.865ZM940.399 366.865C940.38 365.378 941.48 364.432 942.948 364.432C944.357 364.432 945.458 365.378 945.458 366.865C945.458 368.371 944.357 369.297 942.948 369.297C941.48 369.297 940.38 368.371 940.399 366.865ZM940.94 378.179H952.679V376.48H943.064V372.541H940.94V378.179ZM963.882 362.463H955.657V370.726H957.124C960.793 370.745 962.916 370.687 965.349 370.263L965.156 368.641C962.916 369.008 960.966 369.066 957.781 369.066V367.367H963.418V365.745H957.781V364.162H963.882V362.463ZM957.588 378.294H968.902V372.348H957.588V378.294ZM959.673 376.595V373.97H966.855V376.595H959.673ZM966.816 371.614H968.902V361.497H966.816V371.614Z" fill="white"/>
<path d="M58.2303 392.827H60.663V387.035H66.3779V384.95H60.663V381.243H66.9572V379.158H58.2303V392.827ZM68.7674 392.827H71.1614V386.803C71.1614 385.49 72.1461 384.583 73.4783 384.564C73.8838 384.583 74.3857 384.641 74.5981 384.718V382.517C74.3857 382.459 73.9996 382.44 73.71 382.44C72.5516 382.44 71.5669 383.116 71.2001 384.293H71.0842V382.594H68.7674V392.827ZM80.1851 393.02C83.1584 393.04 85.0698 390.916 85.0892 387.769C85.0698 384.564 83.1584 382.459 80.1851 382.44C77.1732 382.459 75.2618 384.564 75.2811 387.769C75.2618 390.916 77.1732 393.04 80.1851 393.02ZM77.7138 387.73C77.6945 385.857 78.5247 384.351 80.1851 384.371C81.8262 384.351 82.6371 385.857 82.6564 387.73C82.6371 389.622 81.8262 391.109 80.1851 391.09C78.5247 391.109 77.6945 389.622 77.7138 387.73ZM89.3373 386.842C89.3373 385.336 90.2448 384.486 91.4997 384.486C92.774 384.486 93.527 385.297 93.5077 386.687V392.827H95.9018V386.301C95.9211 383.849 94.531 382.459 92.4265 382.44C90.8819 382.459 89.8393 383.174 89.3759 384.332H89.2215V382.594H86.9432V392.827H89.3373V386.842ZM103.315 382.594H101.307V380.123H98.9134V382.594H97.446V384.448H98.9134V390.163C98.8941 392.074 100.284 392.962 102.08 392.982C102.698 392.962 103.161 392.924 103.47 392.866V390.896C103.142 390.916 102.678 390.954 102.389 390.935C101.79 390.935 101.307 390.742 101.307 389.738V384.448H103.315V382.594ZM105.499 392.827H114.419V390.781H107.932V387.035H113.917V384.95H107.932V381.243H114.38V379.158H105.499V392.827ZM119.015 386.842C119.015 385.336 119.922 384.486 121.177 384.486C122.451 384.486 123.204 385.297 123.185 386.687V392.827H125.579V386.301C125.598 383.849 124.208 382.459 122.104 382.44C120.559 382.459 119.517 383.174 119.053 384.332H118.899V382.594H116.62V392.827H119.015V386.842ZM131.718 393.02C133.456 393.001 134.248 391.958 134.653 391.205H134.769V392.827H137.124V379.158H134.73V384.255H134.653C134.267 383.54 133.514 382.459 131.718 382.44C129.344 382.459 127.471 384.313 127.471 387.73C127.471 391.09 129.286 393.001 131.718 393.02ZM129.942 387.691C129.923 385.799 130.753 384.429 132.375 384.409C133.919 384.429 134.788 385.722 134.769 387.691C134.788 389.699 133.9 391.032 132.375 391.051C130.772 391.032 129.923 389.641 129.942 387.691Z" fill="white"/>
<path d="M1014.36 362.192H1002.47V363.853H1012.31C1012.31 364.335 1012.29 364.837 1012.27 365.339L1002.04 365.59L1002.31 367.328L1012.18 366.903C1012.1 367.598 1012 368.351 1011.81 369.182L1013.9 369.375C1014.38 367.077 1014.38 365.378 1014.36 363.737V362.192ZM1000.69 371.962H1016.17V370.301H1008.76V368.062H1006.68V370.301H1000.69V371.962ZM1002.58 378.217H1014.71V376.557H1004.67V373.159H1002.58V378.217ZM1031.93 361.497H1029.96V374.201H1031.93V361.497ZM1018.07 371.653H1019.19C1021.84 371.672 1023.46 371.595 1025.41 371.267L1025.22 369.606C1023.55 369.896 1022.13 369.954 1020.08 369.954V368.023H1023.9V366.401H1020.08V364.509H1024.56V362.81H1018.07V371.653ZM1020.62 378.179H1032.4V376.48H1022.74V372.811H1020.62V378.179ZM1024.67 367.869H1026.57V373.815H1028.57V361.806H1026.57V366.17H1024.67V367.869ZM1049.62 374.742H1034.06V376.441H1049.62V374.742ZM1034.72 370.61L1035.53 372.271C1038.45 371.788 1040.69 370.398 1041.8 368.429C1042.94 370.398 1045.18 371.788 1048.12 372.271L1048.93 370.61C1045.24 370.07 1043.04 367.946 1042.91 365.668H1048.23V363.969H1042.87V361.768H1040.78V363.969H1035.41V365.668H1040.74C1040.59 367.946 1038.39 370.07 1034.72 370.61ZM1069.52 361.459H1067.4V378.526H1069.52V361.459ZM1056.39 374.433H1057.82C1061.45 374.414 1063.65 374.317 1066.08 373.854L1065.89 372.116C1063.61 372.522 1061.66 372.618 1058.52 372.618V364.741H1064.62V363.003H1056.39V374.433ZM1078.14 366.285V364.857H1081.69V363.158H1072.31V364.857H1076.05V366.285C1076.03 369.143 1074.37 372.329 1071.65 373.622L1072.89 375.283C1074.85 374.337 1076.34 372.329 1077.11 369.973C1077.89 372.116 1079.3 373.95 1081.23 374.858L1082.38 373.197C1079.7 371.942 1078.12 368.931 1078.14 366.285ZM1083.27 378.488H1085.36V369.838H1087.98V368.1H1085.36V361.459H1083.27V378.488ZM1102.89 361.497H1100.81V373.777H1102.89V361.497ZM1089.03 366.865C1089.01 369.375 1091.02 371.132 1093.63 371.112C1096.19 371.132 1098.2 369.375 1098.18 366.865C1098.2 364.374 1096.19 362.598 1093.63 362.617C1091.02 362.598 1089.01 364.374 1089.03 366.865ZM1091.08 366.865C1091.06 365.378 1092.16 364.432 1093.63 364.432C1095.04 364.432 1096.14 365.378 1096.14 366.865C1096.14 368.371 1095.04 369.297 1093.63 369.297C1092.16 369.297 1091.06 368.371 1091.08 366.865ZM1091.62 378.179H1103.36V376.48H1093.74V372.541H1091.62V378.179ZM1114.56 362.463H1106.34V370.726H1107.8C1111.47 370.745 1113.6 370.687 1116.03 370.263L1115.83 368.641C1113.6 369.008 1111.64 369.066 1108.46 369.066V367.367H1114.1V365.745H1108.46V364.162H1114.56V362.463ZM1108.27 378.294H1119.58V372.348H1108.27V378.294ZM1110.35 376.595V373.97H1117.53V376.595H1110.35ZM1117.5 371.614H1119.58V361.497H1117.5V371.614Z" fill="white"/>
<path d="M198.207 392.827H203.729C206.838 392.827 208.382 391.244 208.363 389.12C208.382 387.035 206.915 385.838 205.467 385.761V385.606C206.799 385.297 207.842 384.371 207.861 382.71C207.842 380.683 206.374 379.177 203.42 379.158H198.207V392.827ZM200.64 390.781V386.765H203.42C204.926 386.765 205.892 387.691 205.892 388.927C205.892 390.008 205.139 390.781 203.343 390.781H200.64ZM200.64 384.988V381.204H203.189C204.637 381.204 205.39 381.977 205.39 383.019C205.39 384.235 204.405 384.988 203.111 384.988H200.64ZM209.789 389.97C209.77 391.958 211.257 393.04 213.187 393.02C214.809 393.04 215.775 392.267 216.199 391.437H216.277V392.827H218.593V385.992C218.593 383.251 216.354 382.459 214.423 382.44C211.855 382.459 210.291 383.772 210.098 385.49H212.454C212.628 384.776 213.284 384.293 214.346 384.293C215.543 384.293 216.199 384.873 216.199 385.877V386.707C215.775 386.726 214.307 386.784 213.574 386.842C211.682 386.977 209.77 387.634 209.789 389.97ZM212.106 389.931C212.087 389.024 212.821 388.541 213.96 388.464C214.442 388.406 215.736 388.329 216.199 388.309V389.159C216.219 390.298 215.292 391.263 213.805 391.283C212.821 391.263 212.087 390.8 212.106 389.931ZM225.347 393.02C227.896 393.04 229.537 391.495 229.711 389.352H227.432C227.201 390.452 226.409 391.07 225.347 391.051C223.841 391.07 222.857 389.815 222.876 387.691C222.857 385.645 223.861 384.39 225.347 384.371C226.525 384.39 227.239 385.143 227.432 386.108H229.711C229.556 383.907 227.819 382.459 225.309 382.44C222.335 382.459 220.424 384.622 220.443 387.769C220.424 390.839 222.277 393.04 225.347 393.02ZM231.521 392.827H233.915V389.41L234.822 388.444L237.969 392.827H240.827L236.618 386.977L240.595 382.594H237.776L234.069 386.726H233.915V379.158H231.521V392.827ZM242.139 392.827H251.059V390.781H244.571V387.035H250.557V384.95H244.571V381.243H251.02V379.158H242.139V392.827ZM255.654 386.842C255.654 385.336 256.562 384.486 257.817 384.486C259.091 384.486 259.844 385.297 259.825 386.687V392.827H262.219V386.301C262.238 383.849 260.848 382.459 258.743 382.44C257.199 382.459 256.156 383.174 255.693 384.332H255.538V382.594H253.26V392.827H255.654V386.842ZM268.358 393.02C270.096 393.001 270.887 391.958 271.293 391.205H271.409V392.827H273.764V379.158H271.37V384.255H271.293C270.907 383.54 270.154 382.459 268.358 382.44C265.983 382.459 264.111 384.313 264.111 387.73C264.111 391.09 265.925 393.001 268.358 393.02ZM266.582 387.691C266.563 385.799 267.393 384.429 269.015 384.409C270.559 384.429 271.428 385.722 271.409 387.691C271.428 389.699 270.54 391.032 269.015 391.051C267.412 391.032 266.563 389.641 266.582 387.691Z" fill="white"/>
<path d="M819.178 69.2848C816.649 69.2848 814.873 71.5823 814.892 75.1928C814.873 78.8418 816.649 81.1394 819.178 81.1394C821.534 81.1394 823.213 79.0928 823.407 75.8106H826.901V84.9236H828.677V68.0105H826.901V74.3432H823.387C823.136 71.2348 821.476 69.2848 819.178 69.2848ZM816.591 75.1928C816.591 72.5477 817.634 70.8873 819.178 70.8679C820.704 70.8873 821.746 72.5477 821.765 75.1928C821.746 77.8764 820.704 79.5369 819.178 79.5176C817.634 79.5369 816.591 77.8764 816.591 75.1928ZM845.248 68.5125H832.698V69.864H835.17V72.7987H832.775V74.1888H845.171V72.7987H842.777V69.864H845.248V68.5125ZM831.27 76.8532H846.677V75.4244H831.27V76.8532ZM833.123 79.4789H842.97V80.7532H833.162V84.7305H845.209V83.379H834.899V82.0275H844.746V78.1661H833.123V79.4789ZM836.946 72.7987V69.864H841V72.7987H836.946ZM862.475 68.0105H860.776V84.8849H862.475V68.0105ZM848.149 75.3086C848.149 78.977 849.578 81.2745 851.779 81.2552C853.864 81.2745 855.293 79.2279 855.466 75.9264H857.339V84.074H859.077V68.3194H857.339V74.4977H855.447C855.235 71.312 853.825 69.362 851.779 69.362C849.578 69.362 848.149 71.6402 848.149 75.3086ZM849.809 75.3086C849.809 72.6056 850.562 71.0417 851.779 71.0224C853.034 71.0417 853.806 72.6056 853.825 75.3086C853.806 77.9923 853.034 79.5755 851.779 79.5562C850.562 79.5755 849.809 77.9923 849.809 75.3086ZM870.743 72.2967V69.4006H868.928V72.2967C868.909 75.4437 867.171 78.6873 864.565 79.9423L865.685 81.371C867.635 80.3864 869.102 78.3205 869.855 75.8878C870.589 78.2047 872.056 80.1161 873.987 81.0621L875.068 79.6334C872.481 78.475 870.743 75.4051 870.743 72.2967ZM873.215 75.0769H876.96V84.9236H878.736V68.0105H876.96V73.6096H873.215V75.0769ZM900.523 68.0105H898.824V84.8849H900.523V68.0105ZM885.811 80.2512L886.892 81.5641C888.552 80.5408 889.691 78.668 890.29 76.467C890.888 78.5136 891.989 80.2126 893.611 81.178L894.692 79.8651C892.298 78.4943 891.139 75.6175 891.139 72.7214V71.3699H894.035V69.9026H886.313V71.3699H889.402V72.7214C889.421 75.7334 888.185 78.8032 885.811 80.2512ZM892.8 75.4631H895.426V84.0354H897.125V68.358H895.426V73.9957H892.8V75.4631ZM910.374 78.6294C906.725 78.6294 904.408 79.7879 904.428 81.7572C904.408 83.7265 906.725 84.8849 910.374 84.8849C914.004 84.8849 916.321 83.7265 916.321 81.7572C916.321 79.7879 914.004 78.6294 910.374 78.6294ZM902.767 77.2393H918.136V75.772H910.683V72.6056H908.907V75.772H902.767V77.2393ZM904.544 70.2887H914.429C914.429 71.5823 914.429 72.8373 913.965 74.5749L915.742 74.7294C916.205 72.9917 916.205 71.6016 916.205 70.2501V68.8214H904.544V70.2887ZM906.204 81.7572C906.185 80.6567 907.787 80.0002 910.374 79.9809C912.942 80.0002 914.545 80.6567 914.545 81.7572C914.545 82.8384 912.942 83.4755 910.374 83.4948C907.787 83.4755 906.185 82.8384 906.204 81.7572ZM932.698 67.9719H930.922V77.2393H932.698V73.3779H935.17V71.9105H932.698V67.9719ZM919.454 70.8679H929.493V69.4392H925.362V67.856H923.585V69.4392H919.454V70.8679ZM920.38 74.266C920.361 75.9843 921.983 77.0269 924.473 77.0462C926.945 77.0269 928.567 75.9843 928.567 74.266C928.567 72.567 926.945 71.5051 924.473 71.4858C921.983 71.5051 920.361 72.567 920.38 74.266ZM921.77 79.3631H930.922V80.7146H921.809V84.7305H933.278V83.379H923.585V81.9889H932.698V78.0502H921.77V79.3631ZM922.079 74.266C922.079 73.3586 923.006 72.7794 924.473 72.7987C925.922 72.7794 926.868 73.3586 926.868 74.266C926.868 75.1928 925.922 75.714 924.473 75.7334C923.006 75.714 922.079 75.1928 922.079 74.266ZM946.916 72.2967V69.4006H945.101V72.2967C945.082 75.4437 943.344 78.6873 940.738 79.9423L941.858 81.371C943.808 80.3864 945.275 78.3205 946.028 75.8878C946.762 78.2047 948.229 80.1161 950.16 81.0621L951.241 79.6334C948.654 78.475 946.916 75.4051 946.916 72.2967ZM949.387 75.0769H953.133V84.9236H954.909V68.0105H953.133V73.6096H949.387V75.0769ZM971.518 68.0105H969.704V84.9236H971.518V68.0105ZM958.428 80.9077H966.537V69.4006H964.799V73.764H960.243V69.4006H958.428V80.9077ZM960.243 79.4017V75.1541H964.799V79.4017H960.243ZM982.76 70.4046V69.1303H980.907V70.4046C980.868 73.1655 977.953 75.7527 974.767 76.3512L975.539 77.8571C978.262 77.2393 980.733 75.4631 981.853 73.0883C982.934 75.4824 985.425 77.2586 988.128 77.8571L988.938 76.3512C985.695 75.7527 982.779 73.1655 982.76 70.4046ZM974.188 82.6839H989.672V81.178H974.188V82.6839ZM1006.32 75.772H990.874V77.1235H1006.32V75.772ZM992.689 79.5948H1002.65V80.8304H992.728V84.6919H1004.93V83.4176H994.504V82.0275H1004.43V78.3205H992.689V79.5948ZM992.805 69.7095H1002.57V70.9066H992.843V74.6522H1004.66V73.3779H994.62V72.1036H1004.39V68.4352H992.805V69.7095ZM1026.33 68.0105H1024.51V84.8849H1026.33V68.0105ZM1012.43 80.3671L1013.39 81.8344C1019.19 79.0542 1021.29 74.768 1021.31 69.8254H1013.28V71.2541H1019.48C1019.13 75.1928 1016.95 78.2433 1012.43 80.3671ZM1039.58 69.4392H1035.45V67.8946H1033.67V69.4392H1029.58V70.7907H1039.58V69.4392ZM1029.04 77.471L1029.31 78.8997C1032.32 78.8804 1036.36 78.8225 1040 78.2047L1039.89 76.969C1038.48 77.1621 1036.95 77.2779 1035.45 77.3552V76.3512C1037.42 76.1581 1038.69 75.2507 1038.69 73.8799C1038.69 72.3353 1037.03 71.3506 1034.6 71.3699C1032.11 71.3506 1030.49 72.3353 1030.51 73.8799C1030.49 75.2314 1031.72 76.1388 1033.67 76.3512V77.4324C1032.01 77.471 1030.43 77.471 1029.04 77.471ZM1031.47 81.5255H1041.16V84.8849H1042.98V80.0968H1031.47V81.5255ZM1032.2 73.8799C1032.2 73.069 1033.13 72.5863 1034.6 72.567C1036.01 72.5863 1036.97 73.069 1036.99 73.8799C1036.97 74.6715 1036.01 75.1734 1034.6 75.1541C1033.13 75.1734 1032.2 74.6715 1032.2 73.8799ZM1041.16 79.3631H1042.98V68.0491H1041.16V79.3631ZM1058.81 68.0105H1057.04V84.8849H1058.81V76.3512H1061.52V74.8452H1058.81V68.0105ZM1045.57 72.1036H1055.57V70.6749H1051.52V68.2422H1049.74V70.6749H1045.57V72.1036ZM1046.42 77.2779C1046.42 79.6141 1048.2 81.2166 1050.63 81.2166C1053.04 81.2166 1054.82 79.6141 1054.84 77.2779C1054.82 74.9804 1053.04 73.3586 1050.63 73.3779C1048.2 73.3586 1046.42 74.9804 1046.42 77.2779ZM1048.16 77.2779C1048.14 75.8492 1049.18 74.8452 1050.63 74.8452C1052.06 74.8452 1053.12 75.8492 1053.14 77.2779C1053.12 78.7453 1052.06 79.7299 1050.63 79.7106C1049.18 79.7299 1048.14 78.7453 1048.16 77.2779ZM1066.93 69.2848C1064.4 69.2848 1062.62 71.5823 1062.64 75.1928C1062.62 78.8418 1064.4 81.1394 1066.93 81.1394C1068.57 81.1394 1069.88 80.1547 1070.6 78.4364H1074.65V84.9236H1076.43V68.0105H1074.65V71.6788H1070.46C1069.73 70.1536 1068.47 69.2848 1066.93 69.2848ZM1064.34 75.1928C1064.34 72.5477 1065.38 70.8873 1066.93 70.8679C1068.45 70.8873 1069.5 72.5477 1069.52 75.1928C1069.5 77.8764 1068.45 79.5369 1066.93 79.5176C1065.38 79.5369 1064.34 77.8764 1064.34 75.1928ZM1070.96 73.1462H1074.65V77.0076H1071.02C1071.12 76.4477 1071.18 75.8492 1071.18 75.1928C1071.18 74.4591 1071.1 73.764 1070.96 73.1462ZM829.99 106.93H823.194V105.289C826.322 105.077 828.311 103.841 828.291 101.872C828.311 99.7867 825.936 98.4932 822.267 98.4739C818.599 98.4932 816.244 99.7867 816.244 101.872C816.244 103.861 818.232 105.096 821.379 105.289V106.93H814.583V108.359H829.99V106.93ZM816.552 114.537H828.253V113.109H818.329V109.633H816.552V114.537ZM818.097 101.872C818.078 100.675 819.7 99.9219 822.267 99.9412C824.874 99.9219 826.476 100.675 826.476 101.872C826.476 103.146 824.874 103.841 822.267 103.841C819.7 103.841 818.078 103.146 818.097 101.872ZM837.1 99.0145H835.285L830.883 115.348H832.698L837.1 99.0145ZM845.628 99.0145C842.056 99.0338 839.411 100.829 839.411 103.532C839.411 106.042 841.632 107.722 844.74 107.973V111.294H837.944V112.8H853.428V111.294H846.516V107.973C849.683 107.722 851.884 106.042 851.884 103.532C851.884 100.829 849.258 99.0338 845.628 99.0145ZM841.149 103.532C841.149 101.679 843.041 100.482 845.628 100.482C848.254 100.482 850.146 101.679 850.146 103.532C850.146 105.405 848.254 106.583 845.628 106.583C843.041 106.583 841.149 105.405 841.149 103.532ZM870.115 111.294H854.63V112.8H870.115V111.294ZM855.943 101.1H858.53V106.737H855.982V108.166H868.647V106.737H866.099V101.1H868.686V99.6323H855.943V101.1ZM860.307 106.737V101.1H864.361V106.737H860.307ZM884.484 98.0105H882.708V114.924H884.484V106.119H887.187V104.614H884.484V98.0105ZM871.973 100.984H877.92V104.305H872.012V110.908H873.402C876.568 110.888 878.847 110.773 881.472 110.29L881.318 108.822C878.847 109.286 876.684 109.402 873.788 109.402V105.733H879.735V99.5164H871.973V100.984ZM902.02 98.0105H900.244V110.29H902.02V98.0105ZM888.351 103.339C888.351 105.83 890.301 107.548 892.869 107.548C895.398 107.548 897.348 105.83 897.348 103.339C897.348 100.907 895.398 99.1689 892.869 99.1689C890.301 99.1689 888.351 100.907 888.351 103.339ZM890.088 103.339C890.088 101.795 891.285 100.733 892.869 100.713C894.394 100.733 895.591 101.795 895.572 103.339C895.591 104.942 894.394 105.984 892.869 106.004C891.285 105.984 890.088 104.942 890.088 103.339ZM890.976 114.537H902.522V113.109H892.753V109.054H890.976V114.537ZM917.087 109.672C913.342 109.672 911.237 110.599 911.218 112.298C911.237 113.997 913.342 114.885 917.087 114.885C920.814 114.885 922.918 113.997 922.918 112.298C922.918 110.599 920.814 109.672 917.087 109.672ZM909.403 108.784H924.81V107.355H918.014V106.177C921.007 106.042 922.648 105.231 922.648 103.803C922.648 102.181 920.659 101.37 917.087 101.37C913.554 101.37 911.546 102.181 911.566 103.803C911.546 105.231 913.226 106.042 916.199 106.177V107.355H909.403V108.784ZM910.175 100.752H923.961V99.362H918.014V97.8174H916.199V99.362H910.175V100.752ZM913.072 112.298C913.072 111.448 914.462 111.004 917.087 111.024C919.713 111.004 921.123 111.448 921.103 112.298C921.123 113.128 919.713 113.553 917.087 113.533C914.462 113.553 913.072 113.128 913.072 112.298ZM913.458 103.803C913.458 102.992 914.751 102.606 917.087 102.606C919.482 102.606 920.736 102.992 920.756 103.803C920.736 104.536 919.482 104.942 917.087 104.922C914.751 104.942 913.458 104.536 913.458 103.803ZM941.574 111.332H934.662V107.857H939.72V99.1689H937.944V102.065H929.642V99.1689H927.866V107.857H932.886V111.332H926.09V112.8H941.574V111.332ZM929.642 106.428V103.532H937.944V106.428H929.642ZM960.773 98.0105H958.997V107.973H960.773V103.725H963.206V102.219H960.773V98.0105ZM947.374 106.351L947.567 107.625C950.54 107.645 954.556 107.625 958.186 107.008L958.031 105.849C956.622 106.062 955.097 106.177 953.591 106.255V105.347C955.502 105.173 956.68 104.382 956.68 103.146C956.68 101.756 955.116 100.964 952.664 100.945C950.231 100.964 948.648 101.756 948.648 103.146C948.648 104.401 949.864 105.193 951.814 105.347V106.313C950.212 106.351 948.687 106.351 947.374 106.351ZM947.798 100.482H957.568V99.2075H953.591V97.856H951.814V99.2075H947.798V100.482ZM949.652 114.73H961.391V113.495H951.428V112.221H960.773V108.668H949.652V109.904H958.997V111.062H949.652V114.73ZM950.386 103.146C950.347 102.49 951.235 102.123 952.664 102.104C954.112 102.123 954.981 102.49 954.981 103.146C954.981 103.822 954.112 104.227 952.664 104.227C951.235 104.227 950.347 103.822 950.386 103.146ZM979.622 106.235H972.748V104.42H977.807V102.992H967.883V100.212H977.691V98.7828H966.107V104.42H971.011V106.235H964.176V107.664H979.622V106.235ZM965.991 111.834C966.01 113.784 968.211 114.885 971.86 114.885C975.509 114.885 977.691 113.784 977.691 111.834C977.691 109.865 975.509 108.765 971.86 108.784C968.211 108.765 966.01 109.865 965.991 111.834ZM967.844 111.834C967.806 110.773 969.292 110.155 971.86 110.135C974.428 110.155 975.895 110.773 975.915 111.834C975.895 112.916 974.428 113.514 971.86 113.495C969.292 113.514 967.806 112.916 967.844 111.834ZM988.547 98.2808C984.743 98.2808 982.523 99.3234 982.523 101.177C982.523 103.088 984.743 104.112 988.547 104.112C992.369 104.112 994.59 103.088 994.57 101.177C994.59 99.3234 992.369 98.2808 988.547 98.2808ZM980.862 106.583H996.269V105.154H980.862V106.583ZM982.716 109.247H992.562V110.56H982.754V114.73H994.802V113.34H984.492V111.834H994.339V107.896H982.716V109.247ZM984.376 101.177C984.376 100.192 985.863 99.613 988.547 99.6323C991.269 99.613 992.756 100.192 992.756 101.177C992.756 102.239 991.269 102.779 988.547 102.799C985.863 102.779 984.376 102.239 984.376 101.177ZM1008.52 101.524V100.791H1012.22V99.362H1002.92V100.791H1006.7V101.524C1006.7 103.841 1005.08 106.042 1002.46 106.93L1003.38 108.359C1005.39 107.645 1006.9 106.177 1007.65 104.343C1008.42 106.042 1009.89 107.374 1011.84 108.012L1012.77 106.583C1010.14 105.791 1008.52 103.725 1008.52 101.524ZM1005.24 114.537H1016.78V113.109H1007.01V109.209H1005.24V114.537ZM1014.5 110.367H1016.28V98.0105H1014.5V110.367ZM1033.35 98.0105H1031.65V102.49H1029.68V98.3194H1028.02V108.089H1029.68V103.957H1031.65V108.668H1033.35V98.0105ZM1018.87 101.37H1027.41V99.9412H1024.05V98.1263H1022.27V99.9412H1018.87V101.37ZM1019.53 105.038C1019.51 106.795 1021.03 107.934 1023.16 107.934C1025.3 107.934 1026.79 106.795 1026.79 105.038C1026.79 103.281 1025.3 102.142 1023.16 102.142C1021.03 102.142 1019.51 103.281 1019.53 105.038ZM1021.11 105.038C1021.11 104.073 1021.94 103.455 1023.16 103.455C1024.35 103.455 1025.18 104.073 1025.17 105.038C1025.18 106.004 1024.35 106.641 1023.16 106.621C1021.94 106.641 1021.11 106.004 1021.11 105.038ZM1021.96 111.912C1021.96 113.804 1024.12 114.885 1027.71 114.885C1031.29 114.885 1033.45 113.804 1033.43 111.912C1033.45 110 1031.29 108.919 1027.71 108.9C1024.12 108.919 1021.96 110 1021.96 111.912ZM1023.78 111.912C1023.74 110.85 1025.18 110.271 1027.71 110.29C1030.22 110.271 1031.65 110.85 1031.65 111.912C1031.65 112.935 1030.22 113.514 1027.71 113.495C1025.18 113.514 1023.74 112.935 1023.78 111.912ZM1048.92 98.0105H1047.14V107.857H1048.92V103.764H1051.35V102.258H1048.92V98.0105ZM1035.67 101.1H1045.71V99.6709H1041.58V97.856H1039.81V99.6709H1035.67V101.1ZM1036.6 104.768C1036.58 106.564 1038.22 107.741 1040.69 107.741C1043.13 107.741 1044.79 106.564 1044.79 104.768C1044.79 102.953 1043.13 101.795 1040.69 101.795C1038.22 101.795 1036.58 102.953 1036.6 104.768ZM1038.11 114.692H1048.92V108.552H1047.14V110.174H1039.88V108.552H1038.11V114.692ZM1038.3 104.768C1038.3 103.764 1039.26 103.127 1040.69 103.146C1042.12 103.127 1043.09 103.764 1043.09 104.768C1043.09 105.772 1042.12 106.39 1040.69 106.39C1039.26 106.39 1038.3 105.772 1038.3 104.768ZM1039.88 113.263V111.603H1047.14V113.263H1039.88ZM1066.34 98.0105H1064.56V114.885H1066.34V98.0105ZM1053.36 110.599H1054.79C1057.44 110.618 1060.16 110.406 1063.13 109.788L1062.9 108.282C1060.2 108.842 1057.59 109.054 1055.14 109.054V99.6709H1053.36V110.599ZM1082.18 98.0105H1080.4V114.924H1082.18V106.042H1084.88V104.536H1082.18V98.0105ZM1069.74 110.753H1071.09C1074.22 110.753 1076.48 110.657 1079.12 110.213L1078.89 108.668C1076.48 109.112 1074.36 109.228 1071.52 109.247V101.1H1077.62V99.6323H1069.74V110.753ZM1087.62 113.418C1088.34 113.437 1088.96 112.838 1088.94 112.105C1088.96 111.352 1088.34 110.753 1087.62 110.753C1086.89 110.753 1086.27 111.352 1086.27 112.105C1086.27 112.838 1086.89 113.437 1087.62 113.418Z" fill="#1C1C1C"/>
<path d="M847.121 409.598V418.402C847.121 420.275 845.847 421.607 843.8 421.607C841.715 421.607 840.421 420.275 840.441 418.402V409.598H838.355V418.595C838.355 421.453 840.499 423.499 843.8 423.499C847.044 423.499 849.206 421.453 849.206 418.595V409.598H847.121ZM854.073 409.598H851.987V423.268H854.073V409.598ZM861.91 408.98H860.095L855.693 425.314H857.508L861.91 408.98ZM872.292 409.598V418.402C872.292 420.275 871.018 421.607 868.971 421.607C866.886 421.607 865.592 420.275 865.612 418.402V409.598H863.526V418.595C863.526 421.453 865.669 423.499 868.971 423.499C872.215 423.499 874.377 421.453 874.377 418.595V409.598H872.292ZM878.626 409.598H876.193L880.518 416.433L876.154 423.268H878.587L881.869 418.016H881.946L885.229 423.268H887.661L883.375 416.433L887.623 409.598H885.229L881.946 414.927H881.869L878.626 409.598ZM904.106 415.738H888.66V417.089H904.106V415.738ZM890.475 419.561H900.438V420.796H890.514V424.658H902.716V423.383H892.29V421.993H902.214V418.286H890.475V419.561ZM890.591 409.675H900.361V410.872H890.63V414.618H902.446V413.344H892.406V412.069H902.175V408.401H890.591V409.675ZM924.077 407.976H922.263V424.889H924.077V407.976ZM911.142 420.758H912.532C916.046 420.758 918.247 420.661 920.757 420.178L920.602 418.711C918.189 419.136 916.142 419.232 912.956 419.213V411.027H919.251V409.559H911.142V420.758ZM932.655 412.958V411.143H936.323V409.675H927.056V411.143H930.879V412.958C930.859 415.815 928.986 419.001 926.438 420.217L927.48 421.646C929.411 420.68 930.994 418.615 931.767 416.201C932.539 418.402 934.026 420.314 935.937 421.221L936.941 419.792C934.392 418.595 932.635 415.622 932.655 412.958ZM938.138 424.851H939.914V416.201H942.617V414.657H939.914V407.976H938.138V424.851ZM957.45 407.976H955.674V420.256H957.45V407.976ZM943.781 413.305C943.781 415.796 945.731 417.514 948.299 417.514C950.828 417.514 952.778 415.796 952.778 413.305C952.778 410.872 950.828 409.135 948.299 409.135C945.731 409.135 943.781 410.872 943.781 413.305ZM945.518 413.305C945.518 411.761 946.715 410.699 948.299 410.679C949.824 410.699 951.021 411.761 951.002 413.305C951.021 414.908 949.824 415.95 948.299 415.969C946.715 415.95 945.518 414.908 945.518 413.305ZM946.406 424.503H957.952V423.075H948.183V419.02H946.406V424.503ZM973.287 407.976H971.511V424.851H973.287V416.317H975.99V414.811H973.287V407.976ZM960.042 412.069H970.043V410.641H965.989V408.208H964.213V410.641H960.042V412.069ZM960.892 417.244C960.892 419.58 962.668 421.182 965.101 421.182C967.514 421.182 969.29 419.58 969.31 417.244C969.29 414.946 967.514 413.324 965.101 413.344C962.668 413.324 960.892 414.946 960.892 417.244ZM962.629 417.244C962.61 415.815 963.653 414.811 965.101 414.811C966.529 414.811 967.591 415.815 967.611 417.244C967.591 418.711 966.529 419.696 965.101 419.676C963.653 419.696 962.61 418.711 962.629 417.244ZM985.301 409.598H977.462V420.642H985.301V418.055H989.124V424.889H990.9V407.976H989.124V411.954H985.301V409.598ZM979.239 419.213V410.988H983.563V419.213H979.239ZM985.301 416.587V413.421H989.124V416.587H985.301ZM843.8 442.262V439.366H841.985V442.262C841.985 445.506 840.112 448.73 837.467 449.908L838.549 451.414C840.576 450.429 842.14 448.402 842.912 445.931C843.704 448.228 845.248 450.121 847.198 451.028L848.241 449.638C845.634 448.46 843.781 445.352 843.8 442.262ZM849.785 454.889H851.6V437.976H849.785V454.889ZM868.75 437.976H867.051V444.657H864.888V438.324H863.228V454.001H864.888V446.124H867.051V454.851H868.75V437.976ZM854.849 450.796H855.969C858.44 450.796 860.178 450.738 862.224 450.294L862.07 448.827C860.274 449.194 858.71 449.271 856.625 449.29V441.452H861.181V440.023H854.849V450.796ZM876.13 441.22V439.019H874.393V441.22C874.393 443.093 873.176 445.236 870.879 446.24L871.883 447.63C873.504 446.935 874.663 445.564 875.281 444C875.899 445.39 876.999 446.529 878.563 447.128L879.49 445.738C877.308 444.927 876.13 443.073 876.13 441.22ZM873.968 451.762C873.968 453.692 876.169 454.851 879.721 454.851C883.235 454.851 885.456 453.692 885.436 451.762C885.456 449.85 883.235 448.711 879.721 448.711C876.169 448.711 873.968 449.85 873.968 451.762ZM875.783 451.762C875.744 450.7 877.25 450.082 879.721 450.063C882.154 450.082 883.66 450.7 883.66 451.762C883.66 452.862 882.154 453.48 879.721 453.461C877.25 453.48 875.744 452.862 875.783 451.762ZM880.03 447.862H881.691V443.846H883.66V448.402H885.359V437.976H883.66V442.378H881.691V438.285H880.03V447.862ZM893.164 439.173C890.5 439.173 888.55 440.834 888.569 443.189C888.55 445.583 890.5 447.224 893.164 447.244C895.828 447.224 897.74 445.583 897.759 443.189C897.74 440.834 895.828 439.173 893.164 439.173ZM887.719 449.754L887.951 451.26C890.982 451.26 895.076 451.24 898.918 450.526L898.763 449.213C895.076 449.754 890.809 449.773 887.719 449.754ZM890.307 443.189C890.307 441.722 891.504 440.737 893.164 440.718C894.786 440.737 896.002 441.722 896.022 443.189C896.002 444.695 894.786 445.68 893.164 445.661C891.504 445.68 890.307 444.695 890.307 443.189ZM899.844 454.889H901.621V437.976H899.844V454.889ZM922.596 438.749H910.857V440.177H920.82V440.216C920.82 440.757 920.8 441.278 920.781 441.857L910.432 442.147L910.664 443.653L920.704 443.17C920.646 443.942 920.53 444.753 920.356 445.661L922.094 445.815C922.577 443.517 922.577 441.818 922.596 440.216V438.749ZM909.081 448.286H924.449V446.858H916.958V444.502H915.143V446.858H909.081V448.286ZM910.973 454.619H922.943V453.152H912.749V449.599H910.973V454.619ZM940.132 437.976H938.433V450.642H940.132V437.976ZM926.501 447.977H927.582C930.247 447.958 931.849 447.881 933.799 447.514L933.645 446.085C931.888 446.414 930.42 446.491 928.2 446.51V444.309H932.254V442.919H928.2V440.795H932.911V439.328H926.501V447.977ZM929.011 454.503H940.634V453.075H930.826V449.252H929.011V454.503ZM933.027 444.155H935.112V450.217H936.811V438.324H935.112V442.726H933.027V444.155ZM957.899 451.298H942.415V452.766H957.899V451.298ZM943.226 447.205L943.921 448.672C946.72 448.151 949.037 446.722 950.119 444.657C951.219 446.722 953.517 448.151 956.316 448.672L957.05 447.205C953.594 446.645 951.123 444.56 951.026 442.031H956.432V440.563H951.026V438.324H949.25V440.563H943.805V442.031H949.211C949.134 444.56 946.643 446.645 943.226 447.205ZM974.547 445.738H959.101V447.089H974.547V445.738ZM960.916 449.561H970.879V450.796H960.955V454.658H973.157V453.383H962.731V451.993H972.655V448.286H960.916V449.561ZM961.032 439.675H970.802V440.872H961.071V444.618H972.887V443.344H962.847V442.069H972.616V438.401H961.032V439.675ZM994.518 437.976H992.704V454.889H994.518V437.976ZM981.583 450.758H982.973C986.487 450.758 988.688 450.661 991.198 450.178L991.043 448.711C988.63 449.136 986.583 449.232 983.397 449.213V441.027H989.692V439.559H981.583V450.758ZM1003.1 442.958V441.143H1006.76V439.675H997.497V441.143H1001.32V442.958C1001.3 445.815 999.427 449.001 996.879 450.217L997.921 451.646C999.852 450.68 1001.44 448.615 1002.21 446.201C1002.98 448.402 1004.47 450.314 1006.38 451.221L1007.38 449.792C1004.83 448.595 1003.08 445.622 1003.1 442.958ZM1008.58 454.851H1010.36V446.201H1013.06V444.657H1010.36V437.976H1008.58V454.851ZM1027.89 437.976H1026.11V450.256H1027.89V437.976ZM1014.22 443.305C1014.22 445.796 1016.17 447.514 1018.74 447.514C1021.27 447.514 1023.22 445.796 1023.22 443.305C1023.22 440.872 1021.27 439.135 1018.74 439.135C1016.17 439.135 1014.22 440.872 1014.22 443.305ZM1015.96 443.305C1015.96 441.761 1017.16 440.699 1018.74 440.679C1020.26 440.699 1021.46 441.761 1021.44 443.305C1021.46 444.908 1020.26 445.95 1018.74 445.969C1017.16 445.95 1015.96 444.908 1015.96 443.305ZM1016.85 454.503H1028.39V453.075H1018.62V449.02H1016.85V454.503ZM1043.84 437.976H1042.07V447.823H1043.84V443.73H1046.28V442.224H1043.84V437.976ZM1030.6 441.065H1040.64V439.637H1036.51V437.822H1034.73V439.637H1030.6V441.065ZM1031.53 444.734C1031.51 446.529 1033.15 447.707 1035.62 447.707C1038.05 447.707 1039.71 446.529 1039.71 444.734C1039.71 442.919 1038.05 441.761 1035.62 441.761C1033.15 441.761 1031.51 442.919 1031.53 444.734ZM1033.03 454.658H1043.84V448.518H1042.07V450.14H1034.81V448.518H1033.03V454.658ZM1033.22 444.734C1033.22 443.73 1034.19 443.093 1035.62 443.112C1037.05 443.093 1038.01 443.73 1038.01 444.734C1038.01 445.738 1037.05 446.356 1035.62 446.356C1034.19 446.356 1033.22 445.738 1033.22 444.734ZM1034.81 453.229V451.569H1042.07V453.229H1034.81ZM1061.26 437.976H1059.49V454.851H1061.26V437.976ZM1048.29 450.565H1049.72C1052.36 450.584 1055.09 450.372 1058.06 449.754L1057.83 448.248C1055.12 448.808 1052.52 449.02 1050.07 449.02V439.637H1048.29V450.565ZM1077.1 437.976H1075.32V454.889H1077.1V446.008H1079.8V444.502H1077.1V437.976ZM1064.67 450.719H1066.02C1069.15 450.719 1071.41 450.622 1074.05 450.178L1073.82 448.634C1071.41 449.078 1069.28 449.194 1066.44 449.213V441.065H1072.54V439.598H1064.67V450.719ZM1082.55 453.383C1083.26 453.403 1083.88 452.804 1083.86 452.071C1083.88 451.318 1083.26 450.719 1082.55 450.719C1081.82 450.719 1081.2 451.318 1081.2 452.071C1081.2 452.804 1081.82 453.403 1082.55 453.383Z" fill="#1C1C1C"/>
<path d="M1.59629 443.095H3.68147V437.148H9.47361V435.372H3.68147V431.24H10.0528V429.425H1.59629V443.095ZM12.0759 443.095H14.0838V436.839C14.0838 435.526 15.1264 434.542 16.5165 434.561C16.9413 434.542 17.4046 434.619 17.5591 434.677V432.746C17.366 432.727 16.9606 432.707 16.7096 432.707C15.5318 432.707 14.4893 433.383 14.1224 434.484H14.0066V432.862H12.0759V443.095ZM23.0752 443.288C25.952 443.307 27.8441 441.183 27.8634 438.036C27.8441 434.831 25.952 432.727 23.0752 432.707C20.1791 432.727 18.287 434.831 18.287 438.036C18.287 441.183 20.1791 443.307 23.0752 443.288ZM20.295 438.036C20.3143 436.067 21.2024 434.387 23.0752 434.407C24.9287 434.387 25.8168 436.067 25.8168 438.036C25.8168 439.967 24.9287 441.627 23.0752 441.627C21.2024 441.627 20.3143 439.967 20.295 438.036ZM31.8449 437.032C31.8449 435.391 32.8295 434.464 34.239 434.445C35.5712 434.464 36.3821 435.353 36.3628 436.839V443.095H38.4093V436.569C38.39 434.059 36.9999 432.727 34.8954 432.707C33.3701 432.727 32.3662 433.441 31.8835 434.522H31.7677V432.862H29.8369V443.095H31.8449V437.032ZM45.6362 432.862H43.551V430.391H41.5431V432.862H40.0371V434.445H41.5431V440.508C41.5238 442.361 42.9332 443.23 44.5164 443.249C45.0763 443.23 45.5011 443.191 45.7521 443.133V441.396C45.5011 441.415 45.057 441.454 44.7481 441.434C44.111 441.434 43.5317 441.241 43.551 440.083V434.445H45.6362V432.862ZM47.9599 443.095H56.6095V441.318H50.045V437.148H56.0689V435.372H50.045V431.24H56.5323V429.425H47.9599V443.095ZM60.8999 437.032C60.8999 435.391 61.8846 434.464 63.294 434.445C64.6262 434.464 65.4371 435.353 65.4178 436.839V443.095H67.4643V436.569C67.445 434.059 66.0549 432.727 63.9504 432.707C62.4252 432.727 61.4212 433.441 60.9385 434.522H60.8227V432.862H58.8919V443.095H60.8999V437.032ZM73.7259 443.288C75.5987 443.288 76.313 442.168 76.6992 441.512H76.8536V443.095H78.823V429.425H76.815V434.522H76.6992C76.3323 433.866 75.6373 432.727 73.7645 432.707C71.2739 432.727 69.4397 434.677 69.4397 437.998C69.4397 441.299 71.2546 443.288 73.7259 443.288ZM71.4862 437.959C71.4862 435.951 72.3937 434.426 74.1893 434.445C75.9076 434.426 76.8536 435.835 76.8536 437.959C76.8536 440.121 75.8883 441.589 74.1893 441.589C72.413 441.589 71.4862 440.025 71.4862 437.959ZM83.9134 441.782H81.7896L80.7857 446.995H82.3688L83.9134 441.782ZM91.269 443.095H96.5205C99.6869 443.095 101.116 441.512 101.116 439.426C101.116 437.303 99.6483 436.125 98.2968 436.028V435.912C99.5518 435.584 100.594 434.735 100.575 433.016C100.594 431.008 99.1849 429.445 96.2889 429.425H91.269V443.095ZM93.3542 441.318V436.955H96.3661C98.0265 436.955 99.0691 438.017 99.0691 439.311C99.0691 440.45 98.2775 441.318 96.2889 441.318H93.3542ZM93.3542 435.333V431.202H96.1344C97.7755 431.221 98.5478 432.07 98.5285 433.171C98.5478 434.503 97.4859 435.333 96.0958 435.333H93.3542ZM102.698 440.199C102.718 442.207 104.224 443.326 106.174 443.326C107.873 443.326 108.819 442.458 109.186 441.705H109.263V443.095H111.232V436.299C111.232 433.325 108.857 432.727 107.216 432.707C104.803 432.727 103.22 433.962 103.046 435.642H105.054C105.247 434.889 105.961 434.349 107.139 434.329C108.529 434.349 109.224 435.024 109.224 436.183V436.994C108.78 437.013 107.216 437.09 106.521 437.148C104.706 437.264 102.718 437.882 102.698 440.199ZM104.668 440.237C104.687 439.214 105.517 438.712 106.83 438.615L109.224 438.461V439.388C109.244 440.623 108.259 441.705 106.598 441.705C105.498 441.705 104.687 441.203 104.668 440.237ZM117.99 443.288C120.403 443.307 121.986 441.84 122.198 439.851H120.229C119.978 440.952 119.129 441.589 117.99 441.589C116.31 441.589 115.229 440.199 115.209 437.959C115.229 435.777 116.329 434.407 117.99 434.407C119.264 434.407 120.017 435.217 120.229 436.183H122.198C121.986 434.098 120.287 432.727 117.951 432.707C115.074 432.727 113.201 434.889 113.201 438.036C113.201 441.106 114.997 443.307 117.99 443.288ZM124.129 443.095H126.137V439.465L127.122 438.48L130.578 443.095H133.049L128.628 437.264L132.779 432.862H130.385L126.291 437.187H126.137V429.425H124.129V443.095ZM134.522 443.095H143.171V441.318H136.607V437.148H142.631V435.372H136.607V431.24H143.094V429.425H134.522V443.095ZM147.462 437.032C147.462 435.391 148.446 434.464 149.856 434.445C151.188 434.464 151.999 435.353 151.979 436.839V443.095H154.026V436.569C154.007 434.059 152.617 432.727 150.512 432.707C148.987 432.727 147.983 433.441 147.5 434.522H147.384V432.862H145.454V443.095H147.462V437.032ZM160.288 443.288C162.16 443.288 162.875 442.168 163.261 441.512H163.415V443.095H165.385V429.425H163.377V434.522H163.261C162.894 433.866 162.199 432.727 160.326 432.707C157.836 432.727 156.001 434.677 156.001 437.998C156.001 441.299 157.816 443.288 160.288 443.288ZM158.048 437.959C158.048 435.951 158.955 434.426 160.751 434.445C162.469 434.426 163.415 435.835 163.415 437.959C163.415 440.121 162.45 441.589 160.751 441.589C158.975 441.589 158.048 440.025 158.048 437.959ZM186.58 427.803H184.842V434.484H182.757V428.267H181.097V443.867H182.757V435.951H184.842V444.678H186.58V427.803ZM172.061 439.851L173.104 441.125C177.911 438.384 179.398 434.387 179.398 429.966H172.756V431.433H177.66C177.37 434.87 175.807 437.727 172.061 439.851ZM191.219 428.537H189.442V435.874H197.397V428.537H195.621V430.815H191.219V428.537ZM191.141 438.654H200.293V440.16H191.18V444.523H202.649V443.095H192.956V441.473H202.069V437.225H191.141V438.654ZM191.219 434.445V432.205H195.621V434.445H191.219ZM200.293 436.492H202.069V432.823H204.502V431.356H202.069V427.803H200.293V436.492ZM213.157 428.074C209.353 428.074 207.133 429.116 207.133 430.97C207.133 432.881 209.353 433.905 213.157 433.905C216.979 433.905 219.2 432.881 219.18 430.97C219.2 429.116 216.979 428.074 213.157 428.074ZM205.472 436.376H220.879V434.947H205.472V436.376ZM207.326 439.04H217.172V440.353H207.364V444.523H219.412V443.133H209.102V441.627H218.949V437.689H207.326V439.04ZM208.986 430.97C208.986 429.985 210.473 429.406 213.157 429.425C215.879 429.406 217.366 429.985 217.366 430.97C217.366 432.032 215.879 432.572 213.157 432.592C210.473 432.572 208.986 432.032 208.986 430.97ZM240.156 427.803H238.379V437.341H240.156V433.325H242.588V431.819H240.156V427.803ZM227.645 436.492H228.958C232.587 436.472 234.576 436.395 236.873 435.912L236.68 434.484C234.537 434.889 232.703 435.005 229.421 435.024V430.352H235.136V428.923H227.645V436.492ZM229.344 444.485H240.156V438.191H229.344V444.485ZM231.12 443.056V439.619H238.379V443.056H231.12ZM256.842 427.803H255.066V437.766H256.842V433.557H259.275V432.09H256.842V427.803ZM244.292 436.569H245.605C249.274 436.55 251.301 436.472 253.56 435.99L253.405 434.561C251.262 434.986 249.37 435.082 246.03 435.102V430.506H251.822V429.039H244.292V436.569ZM245.721 441.357C245.721 443.462 247.903 444.678 251.397 444.678C254.834 444.678 256.997 443.462 256.997 441.357C256.997 439.311 254.834 438.094 251.397 438.075C247.903 438.094 245.721 439.311 245.721 441.357ZM247.459 441.357C247.478 440.218 248.945 439.542 251.397 439.542C253.772 439.542 255.259 440.218 255.259 441.357C255.259 442.554 253.772 443.23 251.397 443.249C248.945 443.23 247.478 442.554 247.459 441.357ZM273.413 427.803H271.636V444.678H273.413V436.144H276.116V434.638H273.413V427.803ZM260.168 431.897H270.169V430.468H266.114V428.035H264.338V430.468H260.168V431.897ZM261.017 437.071C261.017 439.407 262.794 441.01 265.226 441.01C267.64 441.01 269.416 439.407 269.435 437.071C269.416 434.773 267.64 433.152 265.226 433.171C262.794 433.152 261.017 434.773 261.017 437.071ZM262.755 437.071C262.736 435.642 263.778 434.638 265.226 434.638C266.655 434.638 267.717 435.642 267.736 437.071C267.717 438.538 266.655 439.523 265.226 439.504C263.778 439.523 262.736 438.538 262.755 437.071ZM285.427 429.425H277.588V440.469H285.427V437.882H289.249V444.717H291.026V427.803H289.249V431.781H285.427V429.425ZM279.364 439.04V430.815H283.689V439.04H279.364ZM285.427 436.414V433.248H289.249V436.414H285.427ZM148.155 454.803H146.417V471.678H148.155V454.803ZM134.254 467.739H135.374C138 467.72 139.66 467.643 141.591 467.237L141.436 465.731C139.679 466.117 138.212 466.214 135.992 466.233V458.279H140.664V456.811H134.254V467.739ZM139.506 462.642H142.981V470.867H144.68V455.151H142.981V461.175H139.506V462.642ZM164.34 454.803H162.525V471.717H164.34V454.803ZM150.902 461.986C150.902 465.635 152.736 467.932 155.265 467.932C157.794 467.932 159.648 465.635 159.629 461.986C159.648 458.375 157.794 456.078 155.265 456.078C152.736 456.078 150.902 458.375 150.902 461.986ZM152.639 461.986C152.639 459.341 153.721 457.68 155.265 457.661C156.829 457.68 157.91 459.341 157.891 461.986C157.91 464.669 156.829 466.33 155.265 466.311C153.721 466.33 152.639 464.669 152.639 461.986ZM181.103 454.803H179.327V461.059H175.967V462.488H179.327V471.717H181.103V454.803ZM167.781 467.739H169.094C172.241 467.72 174.365 467.623 176.817 467.237L176.624 465.77C174.384 466.156 172.434 466.253 169.596 466.272V462.488H174.963V461.059H169.596V457.777H175.697V456.309H167.781V467.739ZM199.141 462.565H183.695V463.916H199.141V462.565ZM185.51 466.388H195.473V467.623H185.549V471.485H197.751V470.211H187.325V468.82H197.249V465.113H185.51V466.388ZM185.626 456.502H195.395V457.7H185.665V461.445H197.481V460.171H187.441V458.897H197.21V455.228H185.626V456.502ZM220.541 463.646H205.095V465.075H212.084V468.203H213.822V465.075H220.541V463.646ZM206.987 471.33H218.842V469.902H208.764V466.697H206.987V471.33ZM207.103 462.14H218.494V455.344H216.718V457.391H208.879V455.344H207.103V462.14ZM208.879 460.711V458.742H216.718V460.711H208.879ZM227.728 457.506V455.653H225.952V457.391C225.933 459.901 224.407 462.121 221.782 463.028L222.747 464.496C224.716 463.743 226.145 462.275 226.879 460.383C227.612 462.102 228.983 463.453 230.856 464.11L231.821 462.719C229.273 461.851 227.728 459.746 227.728 457.506ZM224.407 467.121H234.1V471.678H235.876V465.693H224.407V467.121ZM230.508 459.707H234.1V464.805H235.876V454.803H234.1V458.202H230.508V459.707ZM251.751 454.803H249.975V464.65H251.751V460.557H254.184V459.051H251.751V454.803ZM238.507 457.893H248.546V456.464H244.415V454.649H242.638V456.464H238.507V457.893ZM239.433 461.561C239.414 463.357 241.055 464.534 243.526 464.534C245.959 464.534 247.62 463.357 247.62 461.561C247.62 459.746 245.959 458.588 243.526 458.588C241.055 458.588 239.414 459.746 239.433 461.561ZM240.939 471.485H251.751V465.345H249.975V466.967H242.716V465.345H240.939V471.485ZM241.132 461.561C241.132 460.557 242.098 459.92 243.526 459.939C244.955 459.92 245.921 460.557 245.921 461.561C245.921 462.565 244.955 463.183 243.526 463.183C242.098 463.183 241.132 462.565 241.132 461.561ZM242.716 470.056V468.396H249.975V470.056H242.716ZM269.171 454.803H267.395V471.678H269.171V454.803ZM256.197 467.392H257.626C260.271 467.411 262.993 467.199 265.966 466.581L265.735 465.075C263.032 465.635 260.425 465.847 257.973 465.847V456.464H256.197V467.392ZM285.008 454.803H283.232V471.717H285.008V462.835H287.711V461.329H285.008V454.803ZM272.574 467.546H273.926C277.054 467.546 279.313 467.45 281.958 467.006L281.726 465.461C279.313 465.905 277.189 466.021 274.351 466.04V457.893H280.452V456.425H272.574V467.546ZM290.458 470.211C291.172 470.23 291.79 469.631 291.771 468.898C291.79 468.145 291.172 467.546 290.458 467.546C289.724 467.546 289.106 468.145 289.106 468.898C289.106 469.631 289.724 470.23 290.458 470.211Z" fill="#1C1C1C"/>
<path d="M812 280.758H856.199L883.711 353.16" stroke="#1463F1" stroke-width="2.5"/>
<circle cx="805.758" cy="280.758" r="6.75751" fill="#4588FF"/>
<circle cx="333.758" cy="300.758" r="6.75751" fill="#4588FF"/>
<rect x="813" y="14" width="150.596" height="33.7875" rx="16.8938" fill="#1463F1"/>
<path fill-rule="evenodd" clip-rule="evenodd" d="M716.099 32.7089L686.417 62.3911L684.663 60.6097L714.709 30.5633L715.074 30.1992L715.587 30.1992L759.17 30.1992L807.041 30.1992H820.12L820.384 30.1992H821.785H822.143H822.232H822.253L822.258 30.1992H822.259C822.259 30.1994 822.259 30.1995 822.259 30.1997C822.287 30.2279 823.491 31.4684 822.259 32.7089H822.258H822.253H822.232H822.143H821.785L820.384 32.7089L820.12 32.7089H807.041H759.17L716.099 32.7089Z" fill="#1463F1"/>
<rect x="967.458" y="14" width="98.4665" height="33.7875" rx="16.8938" fill="#1463F1"/>
<path d="M843.042 26.5508V23.8478H840.918V26.5508C840.879 29.7365 839.335 33.0187 836.555 34.3123L837.906 36.0113C839.856 35.0266 841.246 33.0766 841.98 30.7404C842.714 32.9608 844.065 34.7563 845.976 35.7024L847.251 34.042C844.548 32.8256 843.022 29.7172 843.042 26.5508ZM845.359 29.6786H848.95V39.5252H851.035V22.4577H848.95V27.9795H845.359V29.6786ZM867.605 22.4577H865.482V39.5252H867.605V22.4577ZM854.322 35.5093H862.624V23.8478H860.539V28.0954H856.407V23.8478H854.322V35.5093ZM856.407 33.7717V29.7558H860.539V33.7717H856.407ZM878.924 24.8131V23.5389H876.685V24.8131C876.666 27.4196 874.098 30.0647 870.584 30.6825L871.511 32.4588C874.349 31.841 876.685 30.1033 877.824 27.8444C878.924 30.1226 881.241 31.8603 884.099 32.4588L885.064 30.6825C881.492 30.084 878.905 27.4389 878.924 24.8131ZM870.12 37.3242H885.682V35.5865H870.12V37.3242ZM905.617 22.4577H903.494V39.4866H905.617V22.4577ZM891.523 34.8143L892.604 36.4747C898.57 33.6558 900.54 29.3503 900.559 24.2725H892.373V25.933H898.416C898.03 29.8137 895.964 32.6905 891.523 34.8143ZM918.751 23.8092H914.774V22.3418H912.65V23.8092H908.673V25.3537H918.751V23.8092ZM908.171 31.9182L908.441 33.54C911.472 33.54 915.488 33.4821 919.137 32.8835L918.983 31.4548C917.631 31.6286 916.203 31.7251 914.774 31.8023V30.8756C916.685 30.6439 917.921 29.7365 917.94 28.4043C917.921 26.8404 916.222 25.8364 913.731 25.8557C911.183 25.8364 909.522 26.8404 909.522 28.4043C909.522 29.7365 910.719 30.6246 912.65 30.8756V31.8796C911.048 31.9182 909.522 31.9182 908.171 31.9182ZM910.565 36.2816H920.18V39.4866H922.304V34.6598H910.565V36.2816ZM911.53 28.4043C911.53 27.6706 912.399 27.2652 913.731 27.2458C915.025 27.2652 915.913 27.6706 915.932 28.4043C915.913 29.1186 915.025 29.5241 913.731 29.5241C912.399 29.5241 911.53 29.1186 911.53 28.4043ZM920.18 33.9647H922.304V22.4963H920.18V33.9647ZM933.932 23.4616H925.707V31.7251H927.174C930.842 31.7444 932.966 31.6865 935.399 31.2617L935.206 29.6399C932.966 30.0068 931.016 30.0647 927.831 30.0647V28.3657H933.468V26.7439H927.831V25.1607H933.932V23.4616ZM927.637 39.2935H938.951V33.3469H927.637V39.2935ZM929.723 37.5945V34.9687H936.905V37.5945H929.723ZM936.866 32.6132H938.951V22.4963H936.866V32.6132Z" fill="white"/>
<path d="M999.893 34.1964C996.09 34.2157 993.966 35.1425 993.947 36.8608C993.966 38.5792 996.09 39.4866 999.893 39.4866C1003.66 39.4866 1005.8 38.5792 1005.8 36.8608C1005.8 35.1425 1003.66 34.2157 999.893 34.1964ZM992.171 33.4241H1007.69V31.7637H1000.97V30.7404C1003.95 30.6053 1005.57 29.7751 1005.57 28.3657C1005.57 26.7246 1003.56 25.8943 999.932 25.8943C996.302 25.8943 994.256 26.7246 994.256 28.3657C994.256 29.7751 995.897 30.586 998.851 30.7404V31.7637H992.171V33.4241ZM992.943 25.3537H1006.84V23.7706H1000.97V22.3032H998.851V23.7706H992.943V25.3537ZM996.109 36.8608C996.109 36.1271 997.364 35.741 999.893 35.741C1002.42 35.741 1003.68 36.1271 1003.68 36.8608C1003.68 37.6138 1002.42 37.9613 999.893 37.942C997.364 37.9613 996.109 37.6138 996.109 36.8608ZM996.495 28.3657C996.495 27.6513 997.654 27.3231 999.932 27.3231C1002.19 27.3231 1003.33 27.6513 1003.33 28.3657C1003.33 29.0028 1002.19 29.331 999.932 29.331C997.654 29.331 996.495 29.0028 996.495 28.3657ZM1024.42 35.741H1017.62V32.4202H1022.64V23.5775H1020.56V26.3963H1012.64V23.5775H1010.56V32.4202H1015.58V35.741H1008.86V37.44H1024.42V35.741ZM1012.64 30.7211V28.0567H1020.56V30.7211H1012.64ZM1034.69 23.4616H1026.47V31.7251H1027.94C1031.61 31.7444 1033.73 31.6865 1036.16 31.2617L1035.97 29.6399C1033.73 30.0068 1031.78 30.0647 1028.59 30.0647V28.3657H1034.23V26.7439H1028.59V25.1607H1034.69V23.4616ZM1028.4 39.2935H1039.71V33.3469H1028.4V39.2935ZM1030.49 37.5945V34.9687H1037.67V37.5945H1030.49ZM1037.63 32.6132H1039.71V22.4963H1037.63V32.6132Z" fill="white"/>
<circle cx="685.758" cy="60.7575" r="6.75751" fill="#4588FF"/>
</svg>
